<svg width="426" height="532" viewBox="0 0 426 532" fill="none" xmlns="http://www.w3.org/2000/svg">
<g clip-path="url(#clip0_203_6)">
<path d="M-8.69671 212.528L-10.9222 323.799C14.6529 319.156 35.2533 295.012 35.772 269.072C36.2908 243.131 16.673 218.185 -8.69671 212.528Z" fill="#A08CFF"/>
<path d="M323.527 -14.8945C325.686 -1.69786 319.45 12.4954 308.262 19.8495C297.074 27.2035 281.14 28.3246 269.847 21.1319C260.17 28.9698 247.914 33.5818 235.46 34.0706C223.007 34.5595 209.414 30.6575 199.151 23.6021C196.709 33.524 190.641 42.5149 182.345 48.4999C174.048 54.4839 165.042 57.6571 154.838 56.8576C144.751 90.7831 121.516 120.629 91.0732 138.765C60.63 156.902 23.2817 163.147 -11.422 155.905V-24.4848L323.527 -14.8945Z" fill="#A08CFF"/>
<path d="M189.743 138.32C189.694 138.013 189.635 137.709 189.57 137.405C188.05 136.921 186.529 136.437 185.008 135.953C186.273 135.563 187.538 135.173 188.802 134.781C188.263 133.345 187.546 131.974 186.638 130.723C186.476 130.498 186.297 130.284 186.123 130.068C184.466 130.309 182.809 130.552 181.152 130.793C182.331 130.027 183.511 129.261 184.691 128.496C180.477 124.412 174.202 122.383 168.333 123.414C167.998 129.264 170.067 135.327 173.474 140.132C174.266 138.86 175.059 137.586 175.851 136.313C175.733 138.424 175.616 140.536 175.499 142.648C176.168 143.38 176.875 144.067 177.618 144.709C182.699 149.099 190.79 144.889 189.743 138.32Z" fill="#FFB13C"/>
<path d="M163.044 121.257C170.954 124.031 177.703 129.829 181.545 137.149" stroke="#2B2C34" stroke-width="1.33333" stroke-miterlimit="10" stroke-linecap="round" stroke-linejoin="round"/>
<path d="M41.1273 204.443C41.1761 204.75 41.235 205.054 41.2998 205.358C42.8201 205.842 44.3404 206.326 45.8616 206.81C44.5967 207.2 43.3318 207.59 42.0679 207.982C42.6066 209.418 43.3239 210.789 44.2316 212.04C44.3942 212.265 44.5718 212.479 44.7464 212.695C46.4043 212.454 48.0612 212.212 49.7182 211.97C48.539 212.736 47.3589 213.502 46.1788 214.267C50.3925 218.35 56.6681 220.38 62.5367 219.349C62.8718 213.499 60.8029 207.436 57.3963 202.631C56.6032 203.904 55.8112 205.177 55.0191 206.45C55.1368 204.338 55.2536 202.227 55.3713 200.115C54.7019 199.383 53.9946 198.696 53.2515 198.054C48.171 193.664 40.0798 197.873 41.1273 204.443Z" fill="#FF7AD7"/>
<path d="M67.8255 221.506C59.9159 218.732 53.1665 212.934 49.325 205.614" stroke="#2B2C34" stroke-width="1.33333" stroke-miterlimit="10" stroke-linecap="round" stroke-linejoin="round"/>
<path d="M278 49.7266C277.77 49.5165 277.535 49.3144 277.295 49.1163C275.802 49.6798 274.31 50.2434 272.816 50.8069C273.565 49.7167 274.313 48.6264 275.061 47.5362C273.744 46.7436 272.33 46.1143 270.839 45.6972C270.572 45.6215 270.3 45.5637 270.028 45.502C268.879 46.7187 267.731 47.9364 266.583 49.1531C267.031 47.8219 267.479 46.4897 267.927 45.1585C262.084 44.5701 255.903 46.8691 251.945 51.3157C255.322 56.1089 260.717 59.5778 266.376 61.2326C266.206 59.7431 266.034 58.2536 265.862 56.765C267.084 58.4925 268.307 60.221 269.529 61.9485C270.509 62.1068 271.491 62.2074 272.472 62.2502C279.186 62.5419 282.909 54.2261 278 49.7266Z" fill="#6246EA"/>
<path d="M246.458 52.9039C254.383 50.1748 263.28 50.5352 270.846 53.8906" stroke="#2B2C34" stroke-width="1.33333" stroke-miterlimit="10" stroke-linecap="round" stroke-linejoin="round"/>
<path d="M117.449 170.877C117.449 170.051 116.779 169.383 115.953 169.383C115.127 169.383 114.457 170.051 114.457 170.877C114.457 171.701 115.127 172.37 115.953 172.37C116.779 172.37 117.449 171.701 117.449 170.877Z" fill="#E45858"/>
<path d="M69.3218 135.424C69.3218 134.6 68.6515 133.931 67.8255 133.931C66.9995 133.931 66.3292 134.6 66.3292 135.424C66.3292 136.249 66.9995 136.918 67.8255 136.918C68.6515 136.918 69.3218 136.249 69.3218 135.424Z" fill="#6246EA"/>
<path d="M60.0716 263.647C60.0716 262.822 59.4013 262.153 58.5753 262.153C57.7493 262.153 57.079 262.822 57.079 263.647C57.079 264.472 57.7493 265.14 58.5753 265.14C59.4013 265.14 60.0716 264.472 60.0716 263.647Z" fill="#2B2C34"/>
<path d="M201.901 87.4136C201.901 86.5892 201.231 85.9201 200.405 85.9201C199.579 85.9201 198.908 86.5892 198.908 87.4136C198.908 88.238 199.579 88.9071 200.405 88.9071C201.231 88.9071 201.901 88.238 201.901 87.4136Z" fill="#6246EA"/>
<path d="M209.953 40.6691C209.953 39.8447 209.283 39.1756 208.457 39.1756C207.631 39.1756 206.961 39.8447 206.961 40.6691C206.961 41.4935 207.631 42.1626 208.457 42.1626C209.283 42.1626 209.953 41.4935 209.953 40.6691Z" stroke="#2B2C34" stroke-width="1.33333" stroke-miterlimit="10" stroke-linecap="round" stroke-linejoin="round"/>
<path d="M353.914 16.1861C353.914 15.3616 353.243 14.6926 352.417 14.6926C351.591 14.6926 350.921 15.3616 350.921 16.1861C350.921 17.0105 351.591 17.6796 352.417 17.6796C353.243 17.6796 353.914 17.0105 353.914 16.1861Z" fill="#6246EA"/>
<path d="M366.148 31.4017C366.148 30.5773 365.478 29.9082 364.652 29.9082C363.826 29.9082 363.155 30.5773 363.155 31.4017C363.155 32.2261 363.826 32.8952 364.652 32.8952C365.478 32.8952 366.148 32.2261 366.148 31.4017Z" stroke="#2B2C34" stroke-width="1.33333" stroke-miterlimit="10" stroke-linecap="round" stroke-linejoin="round"/>
<path d="M233.862 11.0203C233.862 10.1958 233.192 9.52675 232.366 9.52675C231.54 9.52675 230.87 10.1958 230.87 11.0203C230.87 11.8447 231.54 12.5138 232.366 12.5138C233.192 12.5138 233.862 11.8447 233.862 11.0203Z" fill="#E45858"/>
<path d="M183.041 10.9524C183.041 10.128 182.371 9.45888 181.545 9.45888C180.719 9.45888 180.048 10.128 180.048 10.9524C180.048 11.7768 180.719 12.4459 181.545 12.4459C182.371 12.4459 183.041 11.7768 183.041 10.9524Z" fill="#6246EA"/>
<path d="M20.3044 280.135C20.3044 279.311 19.6341 278.641 18.8081 278.641C17.9821 278.641 17.3118 279.311 17.3118 280.135C17.3118 280.959 17.9821 281.628 18.8081 281.628C19.6341 281.628 20.3044 280.959 20.3044 280.135Z" fill="#6246EA"/>
<path d="M87.8349 161.916L82.6517 170.877H93.0182L87.8349 161.916Z" stroke="#2B2C34" stroke-width="1.33333" stroke-miterlimit="10" stroke-linecap="round" stroke-linejoin="round"/>
<path d="M378.338 15.8039L380.329 25.9588L388.145 19.1593L378.338 15.8039Z" fill="#E45858"/>
<path d="M213.6 85.2237L223.873 86.6156L219.944 77.0403L213.6 85.2237Z" fill="#2B2C34"/>
<path d="M47.9439 160.911C48.8477 167.259 49.7505 173.607 50.6543 179.955C56.2076 185.574 62.0034 190.968 68.0366 196.107C64.4494 178.64 59.5095 161.457 53.3217 144.733C49.8163 142.127 46.3119 139.521 42.8066 136.915C45.455 137.277 48.1025 137.64 50.75 138.002C47.4033 129.488 43.7323 121.101 39.7431 112.866C34.1269 109.031 28.5107 105.197 22.8945 101.361C26.739 101.689 30.5846 102.018 34.4301 102.346C21.1857 77.1528 4.95157 53.5275 -13.9241 32.2072L-21.8246 43.0819C-12.8148 91.9415 10.7533 137.055 44.3947 173.408C45.5777 169.241 46.7608 165.076 47.9439 160.911Z" fill="#6246EA"/>
<path d="M-3.03589 65.2305C11.7438 92.2112 26.5235 119.193 41.3032 146.174" stroke="#2B2C34" stroke-width="1.33333" stroke-miterlimit="10" stroke-linecap="round" stroke-linejoin="round"/>
<path d="M109.887 135.862C111.167 141.416 112.448 146.971 113.728 152.525C126.929 158.798 140.601 164.083 154.631 168.241C146.111 151.074 136.266 134.578 125.279 118.862C118.018 116.957 110.758 115.053 103.497 113.148C108.934 112.511 114.37 111.872 119.806 111.234C110.401 98.4399 100.225 86.2021 89.3618 74.5926C81.942 74.2521 74.5222 73.9106 67.1034 73.5701C72.2947 71.5827 77.4859 69.5963 82.6782 67.609C52.7956 37.1494 18.1258 11.3137 -19.6235 -8.47425L-24.6342 15.5135C2.63784 72.3912 49.3471 119.555 105.436 148.439C106.92 144.247 108.403 140.054 109.887 135.862Z" fill="#E45858"/>
<path d="M-6.01947 17.0818C29.4993 52.0667 65.018 87.0516 100.537 122.037" stroke="#2B2C34" stroke-width="1.33333" stroke-miterlimit="10" stroke-linecap="round" stroke-linejoin="round"/>
<path d="M102.804 63.7685C104.936 69.0913 107.066 74.4132 109.198 79.7361C120.38 84.0025 131.822 87.5829 143.446 90.4256C143.184 86.5445 142.92 82.6643 142.657 78.7842C144.519 83.0407 146.382 87.2972 148.243 91.5537C157.294 93.6008 166.445 95.2128 175.661 96.3488C168.171 81.6816 158.041 68.486 146.367 56.6275C140.393 57.1722 134.418 57.7158 128.444 58.2604C132.487 55.828 136.53 53.3946 140.574 50.9622C128.77 39.8724 115.667 30.0332 102.196 21.3858C72.6071 2.38836 39.9155 -11.1896 7.35249 -24.4848L-9.1759 -4.05961C20.4313 31.2499 58.8589 58.9803 101.444 76.6415C101.897 72.3512 102.351 68.0598 102.804 63.7685Z" fill="#FFD94B"/>
<path d="M15.1968 -2.85642C52.1639 18.199 89.1321 39.2555 126.099 60.3109" stroke="#2B2C34" stroke-width="1.33333" stroke-miterlimit="10" stroke-linecap="round" stroke-linejoin="round"/>
<path d="M136.194 -0.84509C138.979 -2.94795 141.764 -5.0518 144.549 -7.15466C113.946 -27.551 77.1686 -38.596 40.0987 -37.3663L47.8606 -6.59808C69.693 7.13621 93.6222 17.5041 118.541 24.2C117.488 19.373 116.434 14.546 115.381 9.71898C118.389 15.0468 121.398 20.3756 124.407 25.7035C131.41 27.413 138.484 28.8349 145.604 29.959C144.763 25.9544 143.921 21.9488 143.079 17.9442C147.07 22.3889 151.06 26.8326 155.051 31.2772C165.791 32.5716 176.611 33.1949 187.432 33.1212C176.476 18.6014 163.263 5.97625 148.506 -4.43548C144.402 -3.23868 140.298 -2.04189 136.194 -0.84509Z" fill="#FF7AD7"/>
<path d="M58.7939 -25.9785C92.2666 -11.1102 125.739 3.7582 159.211 18.6266" stroke="#2B2C34" stroke-width="1.33333" stroke-miterlimit="10" stroke-linecap="round" stroke-linejoin="round"/>
<path d="M18.755 240.178C20.8119 240.096 22.8698 240.013 24.9278 239.93C16.278 211.49 1.69287 184.842 -17.7364 162.312L-36.217 164.616C-25.8754 193.423 -10.1081 220.263 9.92265 243.425C10.7676 240.899 11.6115 238.374 12.4564 235.849C13.2814 240.248 14.1074 244.647 14.9323 249.046C20.0119 254.573 25.3398 259.873 30.9041 264.915C29.5843 257.385 27.8436 249.933 25.7149 242.592C23.3946 241.787 21.0753 240.983 18.755 240.178Z" fill="#FFB13C"/>
<path d="M-8.15912 194.322C-0.456046 207.89 7.24802 221.457 14.9511 235.025" stroke="#2B2C34" stroke-width="1.33333" stroke-miterlimit="10" stroke-linecap="round" stroke-linejoin="round"/>
<path d="M17.3737 195.11C17.4714 197.515 17.5692 199.92 17.667 202.325C21.7948 207.459 26.2279 212.361 30.9832 216.982C30.1503 207.99 28.1342 199.132 25.0748 190.643C22.7285 189.183 20.3823 187.722 18.036 186.263C19.8636 186.375 21.6901 186.488 23.5176 186.599C15.4324 166.654 1.54656 149.017 -16.2776 136.886C-9.38858 159.088 0.830319 180.273 14.81 198.67C15.6639 197.483 16.5188 196.296 17.3737 195.11Z" fill="#FFD94B"/>
<path d="M-2.33661 153.926C3.4801 163.124 9.29681 172.322 15.1135 181.52" stroke="#2B2C34" stroke-width="1.33333" stroke-miterlimit="10" stroke-linecap="round" stroke-linejoin="round"/>
<path d="M321.026 18.9288C322.62 17.6285 324.215 16.3272 325.809 15.0258C301.764 -2.50696 274.056 -15.0435 244.957 -21.3849L231.58 -8.45112C257.198 8.3578 285.966 20.3407 315.925 26.8245C315.079 24.2995 314.232 21.7745 313.386 19.2504C316.695 22.2693 320.005 25.2892 323.315 28.3081C330.704 29.6751 338.153 30.7126 345.636 31.4016C340.046 26.1783 334.165 21.2677 328.041 16.6796C325.703 17.4294 323.365 18.1791 321.026 18.9288Z" fill="#FFB13C"/>
<path d="M271.913 -1.6896C283.668 4.20677 295.423 10.1041 307.179 16.0005" stroke="#2B2C34" stroke-width="1.33333" stroke-miterlimit="10" stroke-linecap="round" stroke-linejoin="round"/>
</g>
<rect x="-20.5" y="-19.5" width="446" height="749" rx="4.5" stroke="#9747FF" stroke-dasharray="10 5"/>
<defs>
<clipPath id="clip0_203_6">
<rect width="407" height="345" fill="white" transform="translate(-1)"/>
</clipPath>
</defs>
</svg>
